<svg width="120" height="120" viewBox="0 0 120 120" xmlns="http://www.w3.org/2000/svg">
  <defs>
    <linearGradient id="logoGradient" x1="0%" y1="0%" x2="100%" y2="100%">
      <stop offset="0%" style="stop-color:#00d4ff;stop-opacity:1" />
      <stop offset="100%" style="stop-color:#0099cc;stop-opacity:1" />
    </linearGradient>
  </defs>
  
  <!-- 背景円 -->
  <circle cx="60" cy="60" r="55" fill="none" stroke="url(#logoGradient)" stroke-width="2" opacity="0.1"/>
  
  <!-- ストレッチポーズの人物 -->
  <g fill="none" stroke="url(#logoGradient)" stroke-width="3" stroke-linecap="round" stroke-linejoin="round">
    <!-- 頭部 -->
    <circle cx="60" cy="25" r="8"/>
    
    <!-- 胴体 -->
    <path d="M 60 33 Q 60 45 55 55"/>
    
    <!-- 左腕（上向き） -->
    <path d="M 55 55 Q 50 45 45 40"/>
    
    <!-- 右腕（下向き） -->
    <path d="M 55 55 Q 60 50 65 60"/>
    
    <!-- 左足（曲げた状態） -->
    <path d="M 55 55 Q 50 65 45 70"/>
    
    <!-- 右足（伸ばした状態） -->
    <path d="M 55 55 Q 65 65 70 75"/>
    
    <!-- 手の詳細 -->
    <circle cx="45" cy="40" r="2"/>
    <circle cx="65" cy="60" r="2"/>
    
    <!-- 足の詳細 -->
    <circle cx="45" cy="70" r="2"/>
    <circle cx="70" cy="75" r="2"/>
  </g>
  
  <!-- 装飾的なライン -->
  <g fill="none" stroke="url(#logoGradient)" stroke-width="1" opacity="0.3">
    <path d="M 20 60 Q 40 60 60 60"/>
    <path d="M 60 60 Q 80 60 100 60"/>
    <path d="M 60 20 Q 60 40 60 60"/>
    <path d="M 60 60 Q 60 80 60 100"/>
  </g>
</svg>
